<svg width="310" height="310" viewBox="0 0 310 310" fill="none" xmlns="http://www.w3.org/2000/svg">
<g clip-path="url(#clip0_39_579)">
<path d="M156.17 309.34C241.316 309.34 310.34 240.316 310.34 155.17C310.34 70.0243 241.316 1 156.17 1C71.0243 1 2 70.0243 2 155.17C2 240.316 71.0243 309.34 156.17 309.34Z" fill="#0B0084"/>
<path d="M100.981 129.811H92.8108C92.5694 129.811 92.338 129.906 92.1673 130.077C91.9967 130.248 91.9008 130.479 91.9008 130.721V150.371H71.6208V130.721C71.6182 130.478 71.5201 130.247 71.3478 130.076C71.1756 129.906 70.9431 129.811 70.7008 129.811H62.4608C62.3413 129.811 62.223 129.834 62.1125 129.88C62.0021 129.926 61.9018 129.993 61.8173 130.077C61.7328 130.162 61.6658 130.262 61.6201 130.372C61.5743 130.483 61.5508 130.601 61.5508 130.721V178.951C61.5508 179.07 61.5743 179.188 61.6201 179.299C61.6658 179.409 61.7328 179.51 61.8173 179.594C61.9018 179.679 62.0021 179.746 62.1125 179.791C62.223 179.837 62.3413 179.861 62.4608 179.861H70.7008C70.9431 179.861 71.1756 179.765 71.3478 179.595C71.5201 179.424 71.6182 179.193 71.6208 178.951V157.891H91.9008V178.951C91.9008 179.07 91.9243 179.188 91.9701 179.299C92.0158 179.409 92.0828 179.51 92.1673 179.594C92.2518 179.679 92.3521 179.746 92.4625 179.791C92.5729 179.837 92.6913 179.861 92.8108 179.861H100.981C101.1 179.861 101.219 179.837 101.329 179.791C101.439 179.746 101.54 179.679 101.624 179.594C101.709 179.51 101.776 179.409 101.822 179.299C101.867 179.188 101.891 179.07 101.891 178.951V130.721C101.891 130.479 101.795 130.248 101.624 130.077C101.454 129.906 101.222 129.811 100.981 129.811Z" fill="#FFF1F0"/>
<path d="M140.549 164.699C141.169 158.249 139.669 152.699 136.319 148.979C133.249 145.589 128.819 143.869 123.159 143.869C112.799 143.869 106.109 150.959 106.109 161.929C106.109 170.509 111.169 180.529 125.439 180.529C131.549 180.529 137.109 178.339 140.329 174.659C140.475 174.493 140.555 174.28 140.555 174.059C140.555 173.838 140.475 173.625 140.329 173.459L136.909 169.569C136.826 169.476 136.724 169.401 136.611 169.348C136.497 169.294 136.375 169.264 136.249 169.259C136.123 169.254 135.996 169.276 135.879 169.325C135.761 169.373 135.656 169.446 135.569 169.539C134.296 170.981 132.724 172.128 130.962 172.901C129.201 173.675 127.293 174.056 125.369 174.019C124.206 174.078 123.043 173.904 121.949 173.507C120.854 173.11 119.85 172.497 118.995 171.706C118.141 170.915 117.453 169.961 116.973 168.9C116.493 167.839 116.23 166.693 116.199 165.529H139.639C139.867 165.528 140.086 165.442 140.254 165.289C140.422 165.136 140.527 164.926 140.549 164.699ZM116.289 158.009C117.289 151.349 121.469 150.319 123.969 150.319C126.969 150.319 130.519 152.319 130.969 158.009H116.289Z" fill="#FFF1F0"/>
<path d="M180.889 144.54H172.189C172.056 144.54 171.923 144.569 171.802 144.626C171.681 144.683 171.574 144.767 171.489 144.87C171.402 144.97 171.339 145.089 171.305 145.217C171.27 145.345 171.265 145.48 171.289 145.61L171.809 148.61C170.422 147.078 168.722 145.862 166.825 145.042C164.927 144.223 162.876 143.82 160.809 143.86C150.969 143.86 144.359 151.31 144.359 162.39C144.359 170.76 148.889 180.52 161.679 180.52C163.66 180.537 165.616 180.082 167.386 179.193C169.156 178.305 170.689 177.008 171.859 175.41L171.299 178.79C171.277 178.921 171.283 179.054 171.318 179.182C171.352 179.31 171.414 179.429 171.499 179.53C171.586 179.63 171.694 179.711 171.815 179.766C171.935 179.821 172.067 179.85 172.199 179.85H180.899C181.142 179.85 181.374 179.755 181.546 179.584C181.719 179.414 181.817 179.182 181.819 178.94V145.46C181.819 145.339 181.795 145.218 181.748 145.106C181.702 144.994 181.633 144.892 181.546 144.806C181.46 144.721 181.357 144.653 181.245 144.607C181.132 144.562 181.011 144.539 180.889 144.54ZM162.939 174.54C156.729 174.54 154.409 166.93 154.409 162.13C154.409 156.01 157.029 149.84 162.879 149.84C167.819 149.84 171.269 154.84 171.269 161.99C171.269 168.05 168.669 174.55 162.939 174.55V174.54Z" fill="#FFF1F0"/>
<path d="M195.162 129.811H186.922C186.419 129.811 186.012 130.218 186.012 130.721V178.951C186.012 179.453 186.419 179.861 186.922 179.861H195.162C195.664 179.861 196.072 179.453 196.072 178.951V130.721C196.072 130.218 195.664 129.811 195.162 129.811Z" fill="#FFF1F0"/>
<path d="M233.381 164.699C234.011 158.249 232.501 152.699 229.151 148.979C226.081 145.589 221.651 143.869 216.001 143.869C205.631 143.869 198.941 150.959 198.941 161.929C198.941 170.509 204.001 180.529 218.271 180.529C224.381 180.529 229.941 178.339 233.161 174.659C233.307 174.493 233.387 174.28 233.387 174.059C233.387 173.838 233.307 173.625 233.161 173.459L229.741 169.569C229.658 169.475 229.557 169.399 229.443 169.346C229.33 169.293 229.207 169.263 229.081 169.259C228.955 169.255 228.828 169.277 228.711 169.326C228.594 169.374 228.488 169.447 228.401 169.539C227.129 170.98 225.559 172.127 223.799 172.9C222.04 173.674 220.133 174.056 218.211 174.019C217.048 174.08 215.884 173.906 214.789 173.51C213.694 173.113 212.689 172.501 211.835 171.71C210.98 170.918 210.292 169.964 209.812 168.902C209.333 167.841 209.071 166.694 209.041 165.529H232.471C232.7 165.53 232.92 165.445 233.088 165.291C233.257 165.138 233.361 164.926 233.381 164.699ZM209.121 158.009C210.121 151.349 214.311 150.319 216.801 150.319C219.801 150.319 223.361 152.319 223.801 158.009H209.121Z" fill="#FFF1F0"/>
<path d="M265.639 145.681C263.49 144.414 261.023 143.786 258.529 143.871C256.666 143.844 254.824 144.267 253.16 145.104C251.495 145.942 250.058 147.169 248.969 148.681L249.579 145.681C249.604 145.548 249.6 145.411 249.567 145.28C249.535 145.149 249.474 145.026 249.389 144.921C249.304 144.815 249.195 144.73 249.073 144.671C248.95 144.612 248.816 144.581 248.679 144.581H238.769C238.527 144.583 238.296 144.682 238.125 144.854C237.955 145.026 237.859 145.259 237.859 145.501V178.991C237.859 179.232 237.955 179.464 238.126 179.634C238.297 179.805 238.528 179.901 238.769 179.901H247.009C247.251 179.901 247.482 179.805 247.653 179.634C247.823 179.464 247.919 179.232 247.919 178.991V159.181C248.469 157.331 250.389 153.331 256.719 153.331C258.569 153.246 260.386 153.84 261.829 155.001C261.942 155.097 262.077 155.164 262.222 155.196C262.367 155.227 262.517 155.224 262.66 155.184C262.803 155.145 262.934 155.071 263.042 154.969C263.15 154.868 263.231 154.741 263.279 154.601L266.019 146.761C266.091 146.565 266.093 146.35 266.023 146.153C265.954 145.956 265.818 145.789 265.639 145.681Z" fill="#FFF1F0"/>
</g>
<defs>
<clipPath id="clip0_39_579">
<rect width="310" height="310" fill="white"/>
</clipPath>
</defs>
</svg>
