<svg width="110" height="14" viewBox="0 0 110 14" fill="none" xmlns="http://www.w3.org/2000/svg">
<g clip-path="url(#clip0_728_5018)">
<path d="M17.9664 0.500006H15.1209C15.07 0.500061 15.0208 0.518072 14.9811 0.551079C14.9415 0.584087 14.9138 0.630124 14.9027 0.681618L12.8677 10.1197L10.3626 0.671856C10.3491 0.622506 10.3206 0.579048 10.2812 0.548046C10.2419 0.517044 10.1939 0.500181 10.1445 0.500006H7.97974C7.92993 0.49964 7.88143 0.516536 7.84192 0.548016C7.8024 0.579496 7.77413 0.623765 7.76157 0.673811L5.36929 10.0962L3.35503 0.683572C3.3436 0.631725 3.31566 0.585399 3.27573 0.552086C3.23579 0.518774 3.1862 0.500423 3.13498 0.500006H0.223616C0.188275 0.500037 0.153442 0.508756 0.121972 0.525453C0.0905012 0.54215 0.0632886 0.56635 0.0425568 0.596068C0.0218249 0.625786 0.00816428 0.660179 0.00269576 0.696433C-0.00277276 0.732687 0.000104357 0.76977 0.0110927 0.804647L3.86282 13.1661C3.87726 13.2133 3.90584 13.2545 3.94441 13.2836C3.98298 13.3128 4.02952 13.3284 4.07723 13.3282H6.77231C6.82278 13.3279 6.87171 13.31 6.91126 13.2774C6.95081 13.2449 6.9787 13.1995 6.99047 13.1485L9.05927 4.25335L11.2804 13.1524C11.2932 13.2025 11.3215 13.2468 11.3609 13.2786C11.4003 13.3103 11.4487 13.3277 11.4986 13.3282H14.1937C14.2415 13.328 14.2881 13.312 14.3267 13.2825C14.3652 13.253 14.3937 13.2115 14.4081 13.1641L18.1789 0.804647C18.1895 0.769505 18.1919 0.732277 18.186 0.695974C18.1802 0.659671 18.1661 0.625313 18.1451 0.595693C18.1246 0.566267 18.0978 0.542265 18.0668 0.525638C18.0357 0.50901 18.0013 0.500229 17.9664 0.500006Z" fill="#2D2C7A"/>
<path d="M24.0996 4.10493C23.6291 4.09675 23.164 4.21093 22.7469 4.43706C22.3297 4.6632 21.9736 4.99411 21.7111 5.39965V0.734342C21.7113 0.703661 21.7057 0.673232 21.6946 0.644812C21.6835 0.616391 21.667 0.590542 21.6462 0.568756C21.6254 0.546969 21.6006 0.529673 21.5734 0.517873C21.5461 0.506072 21.5168 0.499999 21.4873 0.5H19.4523C19.4228 0.499999 19.3935 0.506072 19.3662 0.517873C19.339 0.529673 19.3142 0.546969 19.2934 0.568756C19.2726 0.590542 19.2562 0.616391 19.245 0.644812C19.2339 0.673232 19.2283 0.703661 19.2285 0.734342V13.0938C19.2283 13.1245 19.2339 13.1549 19.245 13.1833C19.2562 13.2118 19.2726 13.2376 19.2934 13.2594C19.3142 13.2812 19.339 13.2985 19.3662 13.3103C19.3935 13.3221 19.4228 13.3282 19.4523 13.3281H21.4873C21.5168 13.3282 21.5461 13.3221 21.5734 13.3103C21.6006 13.2985 21.6254 13.2812 21.6462 13.2594C21.667 13.2376 21.6835 13.2118 21.6946 13.1833C21.7057 13.1549 21.7113 13.1245 21.7111 13.0938V8.83664C21.7111 5.86833 23.2852 5.63594 23.7686 5.63594C24.6413 5.63594 25.0155 6.296 25.0155 7.84069V13.0938C25.0153 13.1245 25.0209 13.1549 25.032 13.1833C25.0432 13.2118 25.0596 13.2376 25.0804 13.2594C25.1012 13.2812 25.126 13.2985 25.1532 13.3103C25.1805 13.3221 25.2098 13.3282 25.2393 13.3281H27.2573C27.3172 13.3281 27.3746 13.3035 27.4169 13.2595C27.4593 13.2156 27.483 13.156 27.483 13.0938V7.54972C27.483 5.45629 26.1552 4.10493 24.0996 4.10493Z" fill="#2D2C7A"/>
<path d="M37.5414 4.27663H35.3917C35.3589 4.27672 35.3266 4.28422 35.2969 4.29861C35.2672 4.31299 35.2409 4.33392 35.2198 4.35994C35.1986 4.38596 35.1832 4.41644 35.1746 4.44926C35.166 4.48209 35.1643 4.51647 35.1698 4.55002L35.2996 5.32139C34.9563 4.92855 34.536 4.61669 34.0669 4.40682C33.5977 4.19695 33.0907 4.09395 32.58 4.10478C30.152 4.10478 28.5195 6.01269 28.5195 8.85406C28.5195 11.0022 29.648 13.4999 32.7963 13.4999C33.282 13.4977 33.7608 13.3799 34.1957 13.1554C34.6307 12.9309 35.0103 12.6058 35.3052 12.2051L35.1698 13.0546C35.1635 13.089 35.1648 13.1245 35.1736 13.1583C35.1824 13.1921 35.1985 13.2234 35.2206 13.2499C35.2415 13.2759 35.2677 13.2967 35.2973 13.3109C35.3269 13.3251 35.3591 13.3323 35.3917 13.3319H37.5414C37.6012 13.3319 37.6586 13.3072 37.701 13.2633C37.7433 13.2193 37.7671 13.1597 37.7671 13.0976V4.51097C37.7671 4.44882 37.7433 4.38921 37.701 4.34526C37.6586 4.30132 37.6012 4.27663 37.5414 4.27663ZM33.1104 11.9669C31.5757 11.9669 31.004 10.014 31.004 8.78571C31.004 7.22345 31.6491 5.6358 33.0935 5.6358C34.3141 5.6358 35.1623 6.91686 35.1623 8.75057C35.166 10.3011 34.5322 11.9669 33.1104 11.9669Z" fill="#2D2C7A"/>
<path d="M44.2703 4.27678H42.6924V0.73435C42.6926 0.703504 42.6869 0.67291 42.6757 0.644361C42.6644 0.615812 42.6478 0.589879 42.6268 0.568067C42.6058 0.546254 42.5808 0.528999 42.5533 0.517315C42.5258 0.50563 42.4964 0.499748 42.4667 0.500008H40.4505C40.3907 0.500008 40.3333 0.524697 40.2909 0.568645C40.2486 0.612592 40.2248 0.6722 40.2248 0.73435V4.27678H38.7315C38.6717 4.27678 38.6143 4.30147 38.572 4.34542C38.5296 4.38937 38.5059 4.44897 38.5059 4.51113V5.71212C38.5059 5.77427 38.5296 5.83387 38.572 5.87782C38.6143 5.92177 38.6717 5.94646 38.7315 5.94646H40.2248V13.0938C40.2248 13.156 40.2486 13.2156 40.2909 13.2595C40.3333 13.3035 40.3907 13.3282 40.4505 13.3282H42.4667C42.5265 13.3282 42.5839 13.3035 42.6263 13.2595C42.6686 13.2156 42.6924 13.156 42.6924 13.0938V5.95622H44.2703C44.2998 5.95622 44.3291 5.95015 44.3564 5.93835C44.3836 5.92655 44.4084 5.90925 44.4292 5.88746C44.45 5.86568 44.4665 5.83983 44.4776 5.81141C44.4887 5.78299 44.4943 5.75256 44.4941 5.72188V4.51113C44.4943 4.48044 44.4887 4.45002 44.4776 4.4216C44.4665 4.39317 44.45 4.36733 44.4292 4.34554C44.4084 4.32375 44.3836 4.30646 44.3564 4.29466C44.3291 4.28286 44.2998 4.27678 44.2703 4.27678Z" fill="#2D2C7A"/>
<path d="M47.4379 3.30833C47.4379 2.2499 46.8963 1.56445 46.0556 1.56445C45.7281 1.57756 45.4182 1.72186 45.191 1.96708C44.9637 2.2123 44.8368 2.53938 44.8368 2.87968C44.8368 3.21999 44.9637 3.54706 45.191 3.79228C45.4182 4.0375 45.7281 4.18181 46.0556 4.19492H46.1101C46.0198 4.34594 45.8915 4.46849 45.7391 4.54936C45.5866 4.63024 45.4158 4.66635 45.245 4.65383H45.0569C44.9991 4.65422 44.9436 4.67746 44.9017 4.71881C44.8598 4.76015 44.8346 4.81652 44.8312 4.87645L44.7993 5.51112C44.796 5.56516 44.8112 5.61864 44.8422 5.66221C44.8731 5.70577 44.9178 5.73663 44.9685 5.74937C45.0844 5.77185 45.2024 5.78037 45.3202 5.77476C46.5841 5.77476 47.4379 4.78467 47.4379 3.30833Z" fill="#2D2C7A"/>
<path d="M51.1569 7.66304C49.72 7.37206 49.6034 6.97955 49.6034 6.53625C49.6034 6.09296 50.068 5.75512 50.7319 5.75512C51.4842 5.75512 52.0333 6.1867 52.4114 7.07524C52.4236 7.1042 52.4414 7.13024 52.4637 7.15174C52.486 7.17324 52.5124 7.18974 52.5411 7.20022C52.599 7.22143 52.6626 7.21792 52.7179 7.19045L54.2375 6.39955C54.2905 6.37222 54.3311 6.32436 54.3504 6.26628C54.3698 6.2082 54.3664 6.14456 54.341 6.08905C53.741 4.808 52.4602 4.10303 50.7149 4.10303C48.5051 4.10303 47.1415 5.12631 47.1415 6.7745C47.1415 8.82497 49.1408 9.33857 50.604 9.71546C51.9788 10.0572 52.0841 10.3853 52.0841 10.8091C52.0841 11.4183 51.5443 11.8284 50.7394 11.8284C49.1765 11.8284 48.5465 10.3658 48.4355 10.0709C48.4241 10.0408 48.4069 10.0135 48.3849 9.9906C48.3629 9.96775 48.3366 9.94987 48.3076 9.93809C48.2774 9.92569 48.245 9.92014 48.2125 9.92182C48.1801 9.9235 48.1484 9.93238 48.1195 9.94785L46.583 10.729C46.5542 10.7435 46.5289 10.7642 46.5085 10.7897C46.4881 10.8153 46.4732 10.845 46.4649 10.877C46.4565 10.9091 46.4548 10.9425 46.4599 10.9753C46.4651 11.008 46.4769 11.0392 46.4946 11.0668C47.5196 12.676 48.979 13.4903 50.8334 13.4903C52.5806 13.4903 54.4632 12.5685 54.4632 10.5435C54.467 8.33286 52.1462 7.86418 51.1569 7.66304Z" fill="#2D2C7A"/>
<path d="M69.2523 0.5H67.2343C67.2047 0.499999 67.1755 0.506072 67.1482 0.517873C67.1209 0.529673 67.0962 0.546969 67.0754 0.568756C67.0545 0.590542 67.0381 0.616391 67.027 0.644812C67.0158 0.673232 67.0102 0.703661 67.0105 0.734342V5.77069H62.004V0.734342C62.004 0.672191 61.9802 0.612584 61.9379 0.568636C61.8956 0.524689 61.8381 0.5 61.7783 0.5H59.7452C59.6854 0.5 59.628 0.524689 59.5856 0.568636C59.5433 0.612584 59.5195 0.672191 59.5195 0.734342V13.0938C59.5195 13.156 59.5433 13.2156 59.5856 13.2595C59.628 13.3035 59.6854 13.3281 59.7452 13.3281H61.7783C61.8381 13.3281 61.8956 13.3035 61.9379 13.2595C61.9802 13.2156 62.004 13.156 62.004 13.0938V7.69619H67.0105V13.0938C67.0102 13.1245 67.0158 13.1549 67.027 13.1833C67.0381 13.2118 67.0545 13.2376 67.0754 13.2594C67.0962 13.2812 67.1209 13.2985 67.1482 13.3103C67.1755 13.3221 67.2047 13.3282 67.2343 13.3281H69.2523C69.2818 13.3282 69.3111 13.3221 69.3384 13.3103C69.3657 13.2985 69.3904 13.2812 69.4112 13.2594C69.432 13.2376 69.4485 13.2118 69.4596 13.1833C69.4708 13.1549 69.4764 13.1245 69.4761 13.0938V0.734342C69.4764 0.703661 69.4708 0.673232 69.4596 0.644812C69.4485 0.616391 69.432 0.590542 69.4112 0.568756C69.3904 0.546969 69.3657 0.529673 69.3384 0.517873C69.3111 0.506072 69.2818 0.499999 69.2523 0.5Z" fill="#2D2C7A"/>
<path d="M79.0146 9.44207C79.1688 7.78998 78.7983 6.35855 77.9707 5.41338C77.2185 4.54437 76.1201 4.10498 74.7227 4.10498C72.1668 4.10498 70.5137 5.92112 70.5137 8.73319C70.5137 10.9321 71.7625 13.5001 75.2851 13.5001C76.7897 13.5001 78.1663 12.9376 78.96 11.9944C78.9962 11.9522 79.0162 11.8977 79.0162 11.8411C79.0162 11.7846 78.9962 11.73 78.96 11.6878L78.1175 10.6919C78.0968 10.6677 78.0717 10.6482 78.0436 10.6344C78.0154 10.6206 77.9849 10.613 77.9538 10.6118C77.9228 10.6108 77.8918 10.6166 77.863 10.6287C77.8342 10.6408 77.8081 10.659 77.7864 10.6821C77.4721 11.0518 77.084 11.346 76.6491 11.5443C76.2142 11.7426 75.743 11.8402 75.2681 11.8304C73.9855 11.8304 73.0997 10.9653 73.0113 9.65493H78.7964C78.8515 9.65326 78.9042 9.63068 78.9444 9.59147C78.9846 9.55225 79.0095 9.4991 79.0146 9.44207ZM73.0263 7.72749C73.2746 6.02071 74.3071 5.76098 74.9221 5.76098C75.6744 5.76098 76.5395 6.28239 76.6524 7.73139L73.0263 7.72749Z" fill="#2D2C7A"/>
<path d="M88.9751 4.2767H86.8254C86.7927 4.27699 86.7605 4.28465 86.7309 4.29915C86.7014 4.31365 86.6752 4.33464 86.6542 4.36067C86.632 4.38706 86.6159 4.41838 86.6071 4.45222C86.5983 4.48606 86.5971 4.52153 86.6035 4.55595L86.7332 5.32732C86.3907 4.93413 85.9707 4.622 85.5018 4.41209C85.0329 4.20218 84.5261 4.09939 84.0156 4.11071C81.5857 4.11071 79.9551 6.01862 79.9551 8.85999C79.9551 11.0081 81.0835 13.5058 84.23 13.5058C84.7164 13.5028 85.1957 13.384 85.631 13.1585C86.0662 12.9331 86.4459 12.6069 86.7407 12.2052L86.6035 13.0547C86.5977 13.0891 86.5993 13.1244 86.6081 13.1581C86.6169 13.1919 86.6326 13.2232 86.6542 13.25C86.6753 13.2757 86.7015 13.2964 86.7311 13.3106C86.7606 13.3248 86.7928 13.3321 86.8254 13.332H88.9751C89.0349 13.332 89.0923 13.3073 89.1346 13.2633C89.177 13.2194 89.2007 13.1598 89.2007 13.0976V4.51104C89.2007 4.44889 89.177 4.38928 89.1346 4.34533C89.0923 4.30139 89.0349 4.2767 88.9751 4.2767ZM84.5441 11.9669C83.0094 11.9669 82.4376 10.0141 82.4376 8.78578C82.4376 7.22352 83.0846 5.63587 84.5271 5.63587C85.7477 5.63587 86.5959 6.91693 86.5959 8.75063C86.6016 10.3012 85.9565 11.9669 84.5441 11.9669Z" fill="#2D2C7A"/>
<path d="M92.497 0.5H90.464C90.3393 0.5 90.2383 0.604918 90.2383 0.73434V13.0938C90.2383 13.2232 90.3393 13.3282 90.464 13.3282H92.497C92.6217 13.3282 92.7227 13.2232 92.7227 13.0938V0.73434C92.7227 0.604918 92.6217 0.5 92.497 0.5Z" fill="#2D2C7A"/>
<path d="M101.931 9.44207C102.085 7.78998 101.714 6.35855 100.887 5.41338C100.134 4.54437 99.0361 4.10498 97.6388 4.10498C95.0828 4.10498 93.4297 5.92112 93.4297 8.73319C93.4297 10.9321 94.6804 13.5001 98.2011 13.5001C99.7057 13.5001 101.082 12.9376 101.876 11.9944C101.912 11.9522 101.932 11.8977 101.932 11.8411C101.932 11.7846 101.912 11.73 101.876 11.6878L101.033 10.6919C101.013 10.6676 100.988 10.6479 100.96 10.6342C100.932 10.6204 100.901 10.6129 100.87 10.6119C100.839 10.611 100.808 10.6168 100.779 10.6289C100.75 10.6409 100.724 10.6591 100.702 10.6821C100.388 11.0518 100.001 11.346 99.5661 11.5443C99.1316 11.7425 98.6606 11.8402 98.1861 11.8304C96.9015 11.8304 96.0157 10.9653 95.9292 9.65493H101.714C101.769 9.65279 101.821 9.63001 101.861 9.59084C101.901 9.55166 101.926 9.49878 101.931 9.44207ZM95.9423 7.72749C96.185 6.02071 97.2231 5.75708 97.8381 5.75708C98.5904 5.75708 99.4574 6.27849 99.5684 7.72749H95.9423Z" fill="#2D2C7A"/>
<path d="M109.892 4.56786C109.362 4.24351 108.753 4.08296 108.138 4.10503C107.677 4.09798 107.222 4.20631 106.811 4.42083C106.4 4.63535 106.045 4.94972 105.775 5.33727L105.928 4.55614C105.935 4.52201 105.934 4.48674 105.926 4.45293C105.918 4.41913 105.902 4.38766 105.881 4.36085C105.86 4.33396 105.833 4.3123 105.803 4.29744C105.772 4.28258 105.739 4.27489 105.706 4.27493H103.261C103.231 4.27493 103.202 4.28101 103.175 4.29281C103.148 4.30461 103.123 4.3219 103.102 4.34368C103.081 4.36547 103.065 4.39132 103.054 4.41974C103.042 4.44816 103.037 4.47859 103.037 4.50927V13.092C103.037 13.1227 103.042 13.1531 103.054 13.1815C103.065 13.2099 103.081 13.2358 103.102 13.2576C103.123 13.2793 103.148 13.2966 103.175 13.3084C103.202 13.3202 103.231 13.3263 103.261 13.3263H105.296C105.325 13.3263 105.355 13.3202 105.382 13.3084C105.409 13.2966 105.434 13.2793 105.455 13.2576C105.476 13.2358 105.492 13.2099 105.503 13.1815C105.514 13.1531 105.52 13.1227 105.52 13.092V8.02827C105.655 7.55373 106.129 6.53045 107.692 6.53045C108.148 6.50845 108.597 6.65978 108.954 6.95617C108.982 6.98019 109.015 6.99697 109.05 7.00512C109.085 7.01327 109.122 7.01255 109.157 7.00303C109.192 6.99285 109.225 6.97407 109.251 6.94825C109.278 6.92244 109.299 6.89033 109.311 6.85462L109.988 4.84516C110.005 4.79452 110.005 4.73936 109.988 4.6889C109.97 4.63843 109.937 4.59571 109.892 4.56786Z" fill="#2D2C7A"/>
</g>
<defs>
<clipPath id="clip0_728_5018">
<rect width="110" height="13" fill="white" transform="translate(0 0.5)"/>
</clipPath>
</defs>
</svg>
