<svg width="537" height="62" viewBox="0 0 537 62" fill="none" xmlns="http://www.w3.org/2000/svg">
<g clip-path="url(#clip0_39_566)">
<path d="M87.7099 -1.03336e-05H73.8185C73.5704 0.000253909 73.3298 0.0861507 73.1362 0.243571C72.9427 0.400991 72.8077 0.620554 72.7535 0.866139L62.8192 45.8783L50.5896 0.819582C50.5239 0.584219 50.3844 0.376959 50.1923 0.229104C50.0001 0.0812489 49.7658 0.000825187 49.5246 -1.03336e-05H38.9569C38.7137 -0.00175717 38.4769 0.0788247 38.284 0.228962C38.0911 0.379099 37.9531 0.590225 37.8918 0.828905L26.2131 45.7666L16.3799 0.875461C16.3241 0.628191 16.1877 0.407249 15.9927 0.248374C15.7978 0.0894994 15.5557 0.00198124 15.3056 -1.03336e-05H1.09287C0.920345 0.000139249 0.750298 0.0417229 0.596664 0.121354C0.443031 0.200985 0.310184 0.3164 0.208975 0.458133C0.107766 0.599866 0.0410772 0.763895 0.0143809 0.936797C-0.0123154 1.1097 0.00173015 1.28656 0.0553732 1.45289L18.8588 60.4074C18.9293 60.6326 19.0688 60.829 19.2571 60.9681C19.4454 61.1071 19.6726 61.1815 19.9055 61.1804H33.0624C33.3088 61.179 33.5477 61.0938 33.7407 60.9384C33.9338 60.7831 34.07 60.5666 34.1274 60.3235L44.227 17.9005L55.0702 60.3422C55.1325 60.581 55.2706 60.7924 55.463 60.9439C55.6555 61.0953 55.8916 61.1784 56.1352 61.1804H69.2921C69.5258 61.1795 69.7532 61.1032 69.9413 60.9625C70.1295 60.8219 70.2687 60.6242 70.3388 60.3981L88.7474 1.45289C88.799 1.28529 88.8109 1.10775 88.7822 0.934609C88.7535 0.761471 88.6849 0.597607 88.5822 0.456342C88.4824 0.316006 88.3515 0.201536 88.1999 0.122235C88.0483 0.0429346 87.8805 0.00105279 87.7099 -1.03336e-05Z" fill="#2D2C7A"/>
<path d="M117.65 17.1927C115.353 17.1537 113.083 17.6983 111.046 18.7768C109.01 19.8553 107.271 21.4334 105.99 23.3676V1.11763C105.991 0.971305 105.964 0.826183 105.909 0.69064C105.855 0.555097 105.775 0.431815 105.673 0.327911C105.571 0.224007 105.451 0.141518 105.317 0.0852392C105.184 0.0289601 105.041 -5.16612e-06 104.897 6.91147e-10H94.9629C94.8186 -5.16612e-06 94.6758 0.0289601 94.5426 0.0852392C94.4095 0.141518 94.2886 0.224007 94.187 0.327911C94.0854 0.431815 94.0052 0.555097 93.9508 0.69064C93.8964 0.826183 93.8691 0.971305 93.8703 1.11763V60.0628C93.8691 60.2091 93.8964 60.3542 93.9508 60.4898C94.0052 60.6253 94.0854 60.7486 94.187 60.8525C94.2886 60.9564 94.4095 61.0389 94.5426 61.0952C94.6758 61.1514 94.8186 61.1804 94.9629 61.1804H104.897C105.041 61.1804 105.184 61.1514 105.317 61.0952C105.451 61.0389 105.571 60.9564 105.673 60.8525C105.775 60.7486 105.855 60.6253 105.909 60.4898C105.964 60.3542 105.991 60.2091 105.99 60.0628V39.7593C105.99 25.6028 113.674 24.4945 116.034 24.4945C120.294 24.4945 122.121 27.6425 122.121 35.0095V60.0628C122.12 60.2091 122.148 60.3542 122.202 60.4898C122.256 60.6253 122.337 60.7486 122.438 60.8525C122.54 60.9564 122.661 61.0389 122.794 61.0952C122.927 61.1514 123.07 61.1804 123.214 61.1804H133.066C133.358 61.1804 133.638 61.0627 133.845 60.8531C134.051 60.6435 134.167 60.3592 134.167 60.0628V33.6218C134.167 23.6377 127.685 17.1927 117.65 17.1927Z" fill="#2D2C7A"/>
<path d="M183.269 18.0123H172.775C172.615 18.0127 172.457 18.0485 172.312 18.1171C172.167 18.1857 172.039 18.2856 171.936 18.4097C171.832 18.5337 171.757 18.6791 171.715 18.8356C171.673 18.9922 171.665 19.1562 171.692 19.3162L172.325 22.995C170.65 21.1215 168.598 19.6341 166.307 18.6332C164.017 17.6323 161.542 17.1411 159.049 17.1927C147.196 17.1927 139.226 26.292 139.226 39.8432C139.226 50.088 144.735 62 160.105 62C162.476 61.9898 164.813 61.4278 166.937 60.3573C169.06 59.2867 170.913 57.7362 172.353 55.8251L171.692 59.8765C171.661 60.0407 171.668 60.2097 171.71 60.371C171.753 60.5323 171.832 60.6816 171.94 60.8079C172.042 60.9318 172.169 61.0312 172.314 61.0988C172.458 61.1665 172.616 61.2007 172.775 61.199H183.269C183.562 61.199 183.842 61.0813 184.048 60.8717C184.255 60.6621 184.371 60.3778 184.371 60.0814V19.1299C184.371 18.8335 184.255 18.5492 184.048 18.3396C183.842 18.1301 183.562 18.0123 183.269 18.0123ZM161.638 54.6889C154.146 54.6889 151.355 45.3754 151.355 39.5172C151.355 32.0664 154.504 24.4945 161.555 24.4945C167.514 24.4945 171.655 30.6042 171.655 39.3495C171.673 46.7445 168.579 54.6889 161.638 54.6889Z" fill="#2D2C7A"/>
<path d="M216.12 18.0123H208.417V1.11764C208.418 0.970527 208.391 0.824617 208.336 0.68846C208.281 0.552303 208.2 0.428623 208.097 0.324595C207.995 0.220566 207.873 0.138274 207.738 0.0825481C207.604 0.0268221 207.46 -0.00123257 207.315 8.95883e-06H197.473C197.181 8.95883e-06 196.9 0.117757 196.694 0.327352C196.487 0.536946 196.371 0.821229 196.371 1.11764V18.0123H189.081C188.789 18.0123 188.509 18.1301 188.302 18.3397C188.095 18.5493 187.979 18.8335 187.979 19.13V24.8578C187.979 25.1542 188.095 25.4384 188.302 25.648C188.509 25.8576 188.789 25.9754 189.081 25.9754H196.371V60.0628C196.371 60.3592 196.487 60.6435 196.694 60.8531C196.9 61.0627 197.181 61.1804 197.473 61.1804H207.315C207.608 61.1804 207.888 61.0627 208.094 60.8531C208.301 60.6435 208.417 60.3592 208.417 60.0628V26.0219H216.12C216.265 26.0219 216.407 25.993 216.54 25.9367C216.674 25.8804 216.795 25.7979 216.896 25.694C216.998 25.5901 217.078 25.4668 217.132 25.3313C217.187 25.1958 217.214 25.0506 217.213 24.9043V19.13C217.214 18.9836 217.187 18.8385 217.132 18.703C217.078 18.5674 216.998 18.4441 216.896 18.3402C216.795 18.2363 216.674 18.1538 216.54 18.0976C216.407 18.0413 216.265 18.0123 216.12 18.0123Z" fill="#2D2C7A"/>
<path d="M231.582 13.3928C231.582 8.3449 228.937 5.07587 224.833 5.07587C223.235 5.13837 221.722 5.82658 220.612 6.9961C219.503 8.16561 218.883 9.72551 218.883 11.3485C218.883 12.9715 219.503 14.5314 220.612 15.7009C221.722 16.8704 223.235 17.5587 224.833 17.6212H225.1C224.659 18.3414 224.032 18.9259 223.288 19.3116C222.544 19.6973 221.71 19.8695 220.876 19.8098H219.958C219.676 19.8117 219.405 19.9225 219.2 20.1197C218.996 20.3169 218.873 20.5857 218.856 20.8716L218.7 23.8985C218.684 24.1561 218.759 24.4112 218.91 24.619C219.061 24.8268 219.279 24.9739 219.527 25.0347C220.092 25.1419 220.668 25.1825 221.243 25.1558C227.413 25.1558 231.582 20.4338 231.582 13.3928Z" fill="#2D2C7A"/>
<path d="M249.743 34.1619C242.728 32.7742 242.159 30.9022 242.159 28.788C242.159 26.6739 244.427 25.0626 247.668 25.0626C251.34 25.0626 254.021 27.1209 255.866 31.3586C255.926 31.4967 256.013 31.6209 256.122 31.7234C256.231 31.826 256.36 31.9047 256.5 31.9546C256.782 32.0558 257.093 32.0391 257.363 31.9081L264.782 28.1361C265.04 28.0057 265.238 27.7775 265.333 27.5005C265.427 27.2235 265.411 26.9199 265.287 26.6552C262.358 20.5456 256.105 17.1834 247.585 17.1834C236.797 17.1834 230.14 22.0637 230.14 29.9243C230.14 39.7035 239.9 42.1529 247.043 43.9504C253.755 45.5803 254.269 47.145 254.269 49.166C254.269 52.0718 251.634 54.0276 247.704 54.0276C240.075 54.0276 236.999 47.0518 236.457 45.6455C236.402 45.502 236.318 45.3716 236.21 45.2626C236.103 45.1536 235.974 45.0684 235.833 45.0122C235.685 44.953 235.527 44.9266 235.369 44.9346C235.21 44.9426 235.055 44.985 234.915 45.0587L227.413 48.7841C227.273 48.8533 227.149 48.9521 227.05 49.0739C226.95 49.1957 226.878 49.3377 226.837 49.4903C226.796 49.6429 226.788 49.8027 226.813 49.9588C226.838 50.1149 226.895 50.2638 226.982 50.3954C231.986 58.0697 239.11 61.9534 248.163 61.9534C256.693 61.9534 265.883 57.5574 265.883 47.8993C265.902 37.3565 254.572 35.1212 249.743 34.1619Z" fill="#2D2C7A"/>
<path d="M338.076 6.91147e-10H328.225C328.081 -5.16612e-06 327.938 0.0289601 327.804 0.0852392C327.671 0.141518 327.55 0.224007 327.449 0.327911C327.347 0.431815 327.267 0.555097 327.213 0.69064C327.158 0.826183 327.131 0.971305 327.132 1.11763V25.1371H302.691V1.11763C302.691 0.82122 302.575 0.536937 302.369 0.327343C302.162 0.117748 301.882 6.91147e-10 301.59 6.91147e-10H291.665C291.372 6.91094e-10 291.092 0.117748 290.885 0.327343C290.679 0.536937 290.563 0.82122 290.563 1.11763V60.0628C290.563 60.3592 290.679 60.6435 290.885 60.8531C291.092 61.0627 291.372 61.1804 291.665 61.1804H301.59C301.882 61.1804 302.162 61.0627 302.369 60.8531C302.575 60.6435 302.691 60.3592 302.691 60.0628V34.3203H327.132V60.0628C327.131 60.2091 327.158 60.3542 327.213 60.4898C327.267 60.6253 327.347 60.7486 327.449 60.8525C327.55 60.9564 327.671 61.0389 327.804 61.0952C327.938 61.1514 328.081 61.1804 328.225 61.1804H338.076C338.221 61.1804 338.363 61.1514 338.497 61.0952C338.63 61.0389 338.751 60.9564 338.852 60.8525C338.954 60.7486 339.034 60.6253 339.088 60.4898C339.143 60.3542 339.17 60.2091 339.169 60.0628V1.11763C339.17 0.971305 339.143 0.826183 339.088 0.69064C339.034 0.555097 338.954 0.431815 338.852 0.327911C338.751 0.224007 338.63 0.141518 338.497 0.0852392C338.363 0.0289601 338.221 -5.16612e-06 338.076 6.91147e-10Z" fill="#2D2C7A"/>
<path d="M385.737 42.6465C386.49 34.7673 384.681 27.9405 380.641 23.4328C376.969 19.2883 371.607 17.1927 364.785 17.1927C352.307 17.1927 344.237 25.8543 344.237 39.2657C344.237 49.7527 350.333 62 367.53 62C374.875 62 381.596 59.3177 385.471 54.8193C385.647 54.618 385.745 54.3578 385.745 54.0882C385.745 53.8186 385.647 53.5584 385.471 53.3571L381.357 48.6072C381.257 48.4919 381.134 48.3987 380.997 48.333C380.859 48.2674 380.71 48.2307 380.559 48.2253C380.407 48.2206 380.256 48.2479 380.115 48.3057C379.974 48.3634 379.847 48.4502 379.741 48.5606C378.207 50.3237 376.312 51.7269 374.189 52.6725C372.066 53.6182 369.766 54.0838 367.448 54.0369C361.186 54.0369 356.861 49.9111 356.43 43.6617H384.672C384.941 43.6537 385.198 43.5461 385.394 43.359C385.59 43.172 385.712 42.9185 385.737 42.6465ZM356.503 34.4693C357.715 26.3293 362.756 25.0906 365.758 25.0906C369.431 25.0906 373.654 27.5773 374.205 34.4879L356.503 34.4693Z" fill="#2D2C7A"/>
<path d="M434.361 18.0123H423.867C423.708 18.0137 423.55 18.0503 423.406 18.1194C423.262 18.1886 423.134 18.2887 423.032 18.4128C422.923 18.5387 422.844 18.688 422.801 18.8494C422.759 19.0108 422.752 19.18 422.784 19.3441L423.417 23.023C421.745 21.1478 419.695 19.6592 417.406 18.6581C415.117 17.6569 412.642 17.1667 410.15 17.2207C398.288 17.2207 390.328 26.32 390.328 39.8711C390.328 50.116 395.836 62.028 411.197 62.028C413.571 62.0138 415.911 61.4472 418.036 60.3719C420.161 59.2965 422.015 57.7411 423.454 55.8252L422.784 59.8765C422.756 60.0407 422.763 60.2091 422.806 60.37C422.849 60.5308 422.926 60.6803 423.032 60.8079C423.134 60.9308 423.262 61.0295 423.407 61.097C423.551 61.1646 423.708 61.1994 423.867 61.199H434.361C434.654 61.199 434.934 61.0813 435.14 60.8717C435.347 60.6621 435.463 60.3778 435.463 60.0814V19.13C435.463 18.8335 435.347 18.5493 435.14 18.3397C434.934 18.1301 434.654 18.0123 434.361 18.0123ZM412.73 54.6889C405.238 54.6889 402.447 45.3754 402.447 39.5172C402.447 32.0664 405.605 24.4945 412.647 24.4945C418.606 24.4945 422.747 30.6042 422.747 39.3496C422.775 46.7445 419.625 54.6889 412.73 54.6889Z" fill="#2D2C7A"/>
<path d="M451.558 0H441.633C441.025 0 440.531 0.500376 440.531 1.11762V60.0628C440.531 60.68 441.025 61.1804 441.633 61.1804H451.558C452.167 61.1804 452.66 60.68 452.66 60.0628V1.11762C452.66 0.500376 452.167 0 451.558 0Z" fill="#2D2C7A"/>
<path d="M497.603 42.6465C498.356 34.7673 496.547 27.9405 492.507 23.4328C488.835 19.2883 483.473 17.1927 476.651 17.1927C464.173 17.1927 456.103 25.8543 456.103 39.2657C456.103 49.7527 462.209 62 479.396 62C486.741 62 493.462 59.3177 497.336 54.8193C497.513 54.618 497.611 54.3578 497.611 54.0882C497.611 53.8186 497.513 53.5584 497.336 53.3571L493.223 48.6072C493.123 48.4913 493.001 48.3976 492.864 48.332C492.726 48.2664 492.577 48.2303 492.425 48.2259C492.274 48.2215 492.123 48.249 491.982 48.3066C491.841 48.3642 491.714 48.4507 491.607 48.5606C490.074 50.3235 488.181 51.7266 486.06 52.6723C483.938 53.618 481.639 54.0837 479.323 54.0369C473.052 54.0369 468.727 49.9111 468.305 43.6617H496.547C496.814 43.6515 497.069 43.5429 497.263 43.356C497.458 43.1692 497.578 42.917 497.603 42.6465ZM468.369 34.4693C469.554 26.3293 474.622 25.072 477.624 25.072C481.297 25.072 485.529 27.5587 486.071 34.4693H468.369Z" fill="#2D2C7A"/>
<path d="M536.477 19.4001C533.886 17.8532 530.915 17.0875 527.91 17.1927C525.664 17.1591 523.443 17.6757 521.435 18.6988C519.428 19.7219 517.693 21.2212 516.379 23.0695L517.122 19.3441C517.155 19.1814 517.152 19.0132 517.112 18.852C517.072 18.6907 516.997 18.5406 516.893 18.4128C516.789 18.2845 516.659 18.1813 516.511 18.1104C516.364 18.0395 516.202 18.0028 516.039 18.003H504.103C503.959 18.003 503.816 18.032 503.683 18.0883C503.55 18.1445 503.429 18.227 503.327 18.3309C503.226 18.4348 503.145 18.5581 503.091 18.6936C503.037 18.8292 503.009 18.9743 503.011 19.1206V60.0535C503.009 60.1998 503.037 60.345 503.091 60.4805C503.145 60.616 503.226 60.7393 503.327 60.8432C503.429 60.9471 503.55 61.0296 503.683 61.0859C503.816 61.1422 503.959 61.1711 504.103 61.1711H514.037C514.182 61.1711 514.324 61.1422 514.458 61.0859C514.591 61.0296 514.712 60.9471 514.813 60.8432C514.915 60.7393 514.995 60.616 515.049 60.4805C515.104 60.345 515.131 60.1998 515.13 60.0535V35.9036C515.791 33.6404 518.105 28.7601 525.734 28.7601C527.963 28.6552 530.153 29.3769 531.895 30.7905C532.031 30.905 532.192 30.985 532.364 31.0239C532.537 31.0628 532.716 31.0594 532.887 31.014C533.059 30.9654 533.217 30.8758 533.348 30.7527C533.479 30.6296 533.579 30.4765 533.64 30.3062L536.945 20.7226C537.028 20.481 537.027 20.218 536.941 19.9773C536.856 19.7366 536.692 19.5329 536.477 19.4001Z" fill="#2D2C7A"/>
</g>
<defs>
<clipPath id="clip0_39_566">
<rect width="537" height="62" fill="white"/>
</clipPath>
</defs>
</svg>
