<svg width="185" height="46" viewBox="0 0 185 46" fill="none" xmlns="http://www.w3.org/2000/svg">
<path d="M35.7118 0H28.3186C28.0997 0 27.8899 0.086438 27.7352 0.240188C27.5804 0.393939 27.4934 0.602407 27.4934 0.819843V18.4957H9.10955V0.819843C9.10955 0.602407 9.02255 0.393939 8.86781 0.240188C8.71306 0.086438 8.50325 0 8.28441 0H0.825137C0.606297 0 0.396281 0.086438 0.241538 0.240188C0.0867947 0.393939 0 0.602407 0 0.819843V44.2388C0 44.4562 0.0867947 44.6647 0.241538 44.8184C0.396281 44.9722 0.606297 45.0586 0.825137 45.0586H8.28441C8.50325 45.0586 8.71306 44.9722 8.86781 44.8184C9.02255 44.6647 9.10955 44.4562 9.10955 44.2388V25.284H27.4934V44.2388C27.4934 44.4562 27.5804 44.6647 27.7352 44.8184C27.8899 44.9722 28.0997 45.0586 28.3186 45.0586H35.7118C35.9306 45.0586 36.1404 44.9722 36.2952 44.8184C36.4499 44.6647 36.5369 44.4562 36.5369 44.2388V0.819843C36.5369 0.602407 36.4499 0.393939 36.2952 0.240188C36.1404 0.086438 35.9306 0 35.7118 0Z" fill="#FFF0F1"/>
<path d="M71.5395 31.5028C71.9252 29.0028 71.7859 26.4496 71.1305 24.0065C70.4751 21.5633 69.3184 19.2838 67.7334 17.3134C66.1999 15.7375 64.3449 14.5109 62.2951 13.7174C60.2452 12.9239 58.0487 12.582 55.8549 12.715C46.5359 12.715 40.498 19.12 40.498 29.1379C40.498 36.8567 45.0593 45.9221 57.9222 45.9221C60.4053 46.0133 62.8801 45.5875 65.1903 44.6716C67.5005 43.7557 69.5956 42.3695 71.3428 40.6011C71.4681 40.4483 71.5367 40.2568 71.5367 40.0592C71.5367 39.8615 71.4681 39.6699 71.3428 39.5172L68.2582 36.0355C68.1885 35.9447 68.0993 35.8708 67.997 35.8196C67.8947 35.7684 67.7821 35.7412 67.6677 35.7399C67.4334 35.7415 67.209 35.836 67.0441 36.0027C65.8943 37.2995 64.4778 38.332 62.8919 39.0293C61.306 39.7267 59.5884 40.0724 57.8565 40.0427C56.8061 40.0957 55.7554 39.9374 54.767 39.5773C53.7787 39.2173 52.8725 38.6627 52.1017 37.9463C51.331 37.2299 50.7114 36.3662 50.2796 35.4062C49.8478 34.4461 49.6124 33.4094 49.5875 32.3568H70.7192C70.8297 32.3569 70.9391 32.3346 71.0408 32.2913C71.1425 32.248 71.2346 32.1846 71.3112 32.1048C71.3878 32.0251 71.4478 31.9306 71.487 31.8272C71.5263 31.7237 71.5439 31.6134 71.5395 31.5028ZM49.6531 25.4592C50.5391 19.4484 54.3454 18.5287 56.5767 18.5287C58.8081 18.5287 62.483 20.3681 62.9095 25.4592H49.6531Z" fill="#FFF0F1"/>
<path d="M107.805 13.281H99.9324C99.8128 13.2821 99.6947 13.3091 99.5866 13.3603C99.4785 13.4115 99.3829 13.4857 99.3064 13.5776C99.2252 13.6717 99.1656 13.7823 99.1315 13.9018C99.0973 14.0213 99.0898 14.1468 99.109 14.2696L99.6031 16.9714C98.3505 15.6015 96.8225 14.5117 95.1196 13.7736C93.4168 13.0354 91.5775 12.6655 89.7218 12.688C80.8287 12.688 74.834 19.2779 74.834 29.4593C74.834 37.0048 78.9512 45.9342 90.5123 45.9342C92.2923 45.9254 94.0462 45.5079 95.6395 44.7138C97.2327 43.9198 98.6225 42.7704 99.7016 41.3542L99.2079 44.3525C99.1891 44.4702 99.197 44.5906 99.2312 44.7047C99.2654 44.8188 99.3248 44.9237 99.4053 45.0116C99.4766 45.1093 99.5714 45.1876 99.6807 45.2394C99.79 45.2912 99.9105 45.3148 100.031 45.3081H107.903C108.121 45.3081 108.331 45.2214 108.486 45.0669C108.64 44.9124 108.726 44.7028 108.726 44.4844V14.1708C108.737 14.0483 108.721 13.925 108.678 13.8099C108.635 13.6948 108.566 13.5908 108.478 13.5055C108.39 13.4202 108.283 13.3558 108.167 13.3169C108.05 13.2781 107.926 13.2658 107.805 13.281ZM91.5661 40.4315C85.9338 40.4315 83.8588 33.5451 83.8588 29.1958C83.8588 23.6602 86.1972 18.0917 91.5002 18.0917C95.9797 18.0917 99.109 22.6059 99.109 29.0969C99.0431 34.5666 96.7373 40.4315 91.5661 40.4315Z" fill="#FFF0F1"/>
<path d="M120.698 0H113.489C113.048 0 112.691 0.36679 112.691 0.819248V44.2394C112.691 44.6918 113.048 45.0586 113.489 45.0586H120.698C121.138 45.0586 121.495 44.6918 121.495 44.2394V0.819248C121.495 0.36679 121.138 0 120.698 0Z" fill="#FFF0F1"/>
<path d="M155.615 31.4768C156.006 28.9802 155.866 26.4306 155.201 23.9908C154.537 21.551 153.364 19.2746 151.758 17.3069C150.21 15.7339 148.336 14.5093 146.264 13.7167C144.192 12.9241 141.971 12.5824 139.752 12.7148C130.274 12.7148 124.154 19.111 124.154 29.1152C124.047 31.4011 124.435 33.6834 125.293 35.8094C126.152 37.9353 127.461 39.8559 129.133 41.4427C130.805 43.0295 132.801 44.2458 134.988 45.0105C137.175 45.7751 139.502 46.0703 141.814 45.8763C144.331 45.9735 146.842 45.5511 149.184 44.6361C151.526 43.7211 153.649 42.3336 155.416 40.5626C155.556 40.4164 155.634 40.2228 155.634 40.0215C155.634 39.8201 155.556 39.6264 155.416 39.4802L152.29 36.0034C152.223 35.9087 152.133 35.832 152.029 35.7804C151.924 35.7289 151.808 35.704 151.691 35.7082C151.579 35.7096 151.467 35.7336 151.364 35.7787C151.262 35.8238 151.169 35.8891 151.092 35.9705C149.924 37.2622 148.488 38.2909 146.882 38.987C145.275 39.6832 143.535 40.0303 141.781 40.0051C140.716 40.0579 139.651 39.8999 138.649 39.5403C137.648 39.1807 136.729 38.6269 135.948 37.9115C135.167 37.196 134.539 36.3335 134.101 35.3748C133.664 34.4161 133.425 33.3808 133.4 32.3297H154.784C154.897 32.3348 155.011 32.3159 155.116 32.2743C155.222 32.2328 155.317 32.1696 155.396 32.0889C155.474 32.0081 155.534 31.9118 155.572 31.8063C155.61 31.7007 155.625 31.5884 155.615 31.4768ZM133.466 25.4415C134.364 19.439 138.189 18.5205 140.484 18.5205C142.778 18.5205 146.47 20.3574 146.902 25.4415H133.466Z" fill="#FFF0F1"/>
<path d="M184.478 14.3407C182.497 13.1515 180.203 12.5811 177.892 12.7032C176.205 12.6766 174.537 13.0558 173.029 13.8085C171.521 14.5611 170.219 15.665 169.232 17.0261L169.792 14.2752C169.847 14.1688 169.875 14.0509 169.875 13.9313C169.875 13.8117 169.847 13.6938 169.792 13.5874C169.629 13.4121 169.405 13.3064 169.166 13.2927H160.177C159.958 13.2927 159.749 13.379 159.594 13.5325C159.44 13.6861 159.354 13.8943 159.354 14.1114V44.2405C159.354 44.4576 159.44 44.6658 159.594 44.8194C159.749 44.9729 159.958 45.0592 160.177 45.0592H167.651C167.87 45.0592 168.079 44.9729 168.234 44.8194C168.388 44.6658 168.474 44.4576 168.474 44.2405V26.4578C168.972 24.7994 170.039 23.367 171.489 22.4097C172.939 21.4524 174.68 21.0307 176.41 21.218C178.085 21.1472 179.73 21.6694 181.053 22.6916C181.148 22.7814 181.265 22.8441 181.393 22.8729C181.52 22.9017 181.653 22.8957 181.778 22.8554C181.91 22.8257 182.031 22.7615 182.129 22.6693C182.228 22.5772 182.3 22.4605 182.338 22.3314L184.84 15.2904C184.903 15.1151 184.9 14.9234 184.834 14.7495C184.767 14.5756 184.642 14.4307 184.478 14.3407Z" fill="#FFF0F1"/>
</svg>
