<svg width="133" height="28" viewBox="0 0 133 28" fill="none" xmlns="http://www.w3.org/2000/svg">
<g clip-path="url(#clip0_572_2573)">
<path d="M19.5049 1.38298e-05H17.4318C17.3018 0.00175248 17.1777 0.0553555 17.0857 0.149401C16.9938 0.243447 16.9415 0.370501 16.9398 0.50349V21.9851L3.65484 0.234974C3.61018 0.162485 3.54821 0.102855 3.47473 0.0617397C3.40126 0.0206239 3.31871 -0.000621216 3.23496 1.38298e-05H0.486174C0.356207 0.00175248 0.232042 0.0553555 0.140133 0.149401C0.0482246 0.243447 -0.00416024 0.370501 -0.00585938 0.50349V27.1273C-0.00585938 27.2608 0.0459368 27.3889 0.138211 27.4833C0.230485 27.5777 0.355679 27.6308 0.486174 27.6308H2.58549C2.71598 27.6308 2.84118 27.5777 2.93345 27.4833C3.02572 27.3889 3.07752 27.2608 3.07752 27.1273V5.07505L16.9135 27.3824C16.9576 27.4539 17.0186 27.5129 17.0908 27.554C17.163 27.5951 17.2442 27.6169 17.3268 27.6174H19.4983C19.6288 27.6174 19.754 27.5643 19.8462 27.4699C19.9385 27.3755 19.9904 27.2474 19.9904 27.1139V0.50349C19.9887 0.371639 19.9372 0.24556 19.8467 0.151696C19.7562 0.0578317 19.6337 0.00347306 19.5049 1.38298e-05Z" fill="#FFF0F1"/>
<path d="M40.6216 23.5627L39.0799 22.5288C38.9741 22.4625 38.8478 22.4394 38.7262 22.4643C38.6045 22.4892 38.4965 22.5602 38.4238 22.6631C37.5972 23.8782 35.9374 25.3483 32.6834 25.3483C31.0451 25.3565 29.4659 24.7225 28.2702 23.5764C27.0745 22.4303 26.3531 20.8591 26.2542 19.1858H40.1624C40.2906 19.1858 40.4138 19.1346 40.5057 19.0431C40.5976 18.9515 40.651 18.8269 40.6544 18.6957C40.7463 14.97 39.8409 11.9827 38.0302 10.1232C37.2389 9.33256 36.297 8.71714 35.2631 8.31523C34.2292 7.91331 33.1256 7.73352 32.0208 7.78706C26.6281 7.78706 23.1445 11.7142 23.1445 17.7962C23.1445 23.8782 26.9758 28.0201 32.6703 28.0201C36.0883 28.0201 38.9618 26.6775 40.7594 24.3145C40.8001 24.2588 40.8293 24.1952 40.8452 24.1276C40.861 24.0599 40.8631 23.9896 40.8514 23.9211C40.8397 23.8526 40.8145 23.7872 40.7773 23.729C40.74 23.6708 40.6915 23.6211 40.6347 23.5828L40.6216 23.5627ZM26.2673 16.3059C26.7462 12.4123 28.7144 10.4387 32.1127 10.4387C33.3395 10.4387 37.2692 10.8683 37.6038 16.3059H26.2673Z" fill="#FFF0F1"/>
<path d="M52.497 8.13617H48.5608V0.503476C48.5608 0.369946 48.509 0.241882 48.4167 0.147462C48.3244 0.0530417 48.1992 0 48.0687 0H45.9366C45.8066 0.00173865 45.6825 0.0553417 45.5906 0.149388C45.4986 0.243433 45.4463 0.370487 45.4446 0.503476V8.13617H42.1053C41.9753 8.13791 41.8512 8.19151 41.7593 8.28556C41.6674 8.37961 41.615 8.50666 41.6133 8.63965V10.3783C41.615 10.5113 41.6674 10.6384 41.7593 10.7324C41.8512 10.8265 41.9753 10.8801 42.1053 10.8818H45.4446V27.1273C45.4446 27.2608 45.4964 27.3889 45.5887 27.4833C45.681 27.5777 45.8061 27.6308 45.9366 27.6308H48.0687C48.1336 27.6317 48.198 27.6193 48.2581 27.5943C48.3182 27.5693 48.3728 27.5323 48.4186 27.4853C48.4645 27.4384 48.5007 27.3825 48.5251 27.321C48.5496 27.2595 48.5617 27.1937 48.5608 27.1273V10.8818H52.497C52.6275 10.8818 52.7527 10.8288 52.845 10.7343C52.9373 10.6399 52.9891 10.5118 52.9891 10.3783V8.63965C52.9891 8.50612 52.9373 8.37805 52.845 8.28363C52.7527 8.18921 52.6275 8.13617 52.497 8.13617Z" fill="#FFF0F1"/>
<path d="M83.3576 8.13613H81.1205C81.0194 8.13619 80.9207 8.16767 80.8375 8.22641C80.7543 8.28516 80.6906 8.36838 80.6547 8.46506L75.367 23.3277L70.6369 8.4852C70.6051 8.38422 70.543 8.29611 70.4593 8.23342C70.3757 8.17073 70.2748 8.13668 70.1711 8.13613H68.2554C68.1523 8.13518 68.0516 8.16785 67.9678 8.2294C67.8841 8.29096 67.8217 8.37821 67.7896 8.4785L62.8627 23.2941L57.7718 8.47178C57.737 8.37385 57.6737 8.28919 57.5904 8.22918C57.5072 8.16917 57.4079 8.1367 57.3061 8.13613H55.1018C55.023 8.13605 54.9454 8.15556 54.8757 8.19298C54.806 8.2304 54.7463 8.28462 54.7016 8.35095C54.6559 8.41618 54.626 8.49165 54.6146 8.57106C54.6032 8.65046 54.6105 8.7315 54.6359 8.80743L61.1045 27.2951C61.1394 27.393 61.2027 27.4777 61.286 27.5377C61.3693 27.5977 61.4685 27.6302 61.5704 27.6307H64.0108C64.1129 27.6311 64.2125 27.599 64.296 27.5389C64.3795 27.4788 64.4426 27.3936 64.4766 27.2951L69.1411 13.4797L73.7728 27.2951C73.8076 27.393 73.871 27.4777 73.9542 27.5377C74.0375 27.5977 74.1367 27.6302 74.2385 27.6307H76.6266C76.7269 27.6312 76.825 27.5999 76.9073 27.5409C76.9895 27.482 77.0519 27.3985 77.0858 27.3018L83.8103 8.81415C83.8367 8.73762 83.8451 8.65581 83.8348 8.57534C83.8245 8.49487 83.7959 8.418 83.7512 8.35095C83.7068 8.28594 83.648 8.2326 83.5796 8.19527C83.5112 8.15794 83.4351 8.13767 83.3576 8.13613Z" fill="#FFF0F1"/>
<path d="M93.4796 7.76025C88.2312 7.76025 84.459 11.9693 84.459 17.7694C84.459 23.8849 88.2116 27.9933 93.8076 27.9933C98.9051 27.9933 102.605 23.6902 102.605 17.7694C102.605 11.976 98.7804 7.76025 93.4796 7.76025ZM93.8469 25.3953C89.8516 25.3282 87.5752 22.549 87.608 17.7694C87.608 13.1978 89.8582 10.385 93.5124 10.385C97.1665 10.385 99.4889 13.2247 99.4889 17.7694C99.4889 22.3141 97.2518 25.4021 93.8469 25.4021V25.3953Z" fill="#FFF0F1"/>
<path d="M113.574 7.7602C110.72 7.7602 109.12 9.10281 108.168 10.7206L108.28 8.65974C108.286 8.52162 108.239 8.38648 108.149 8.28382C108.053 8.18611 107.923 8.13068 107.788 8.12941H105.478C105.348 8.12941 105.223 8.18247 105.131 8.27689C105.038 8.37131 104.986 8.49935 104.986 8.63289V27.1205C104.985 27.1869 104.998 27.2528 105.022 27.3143C105.047 27.3758 105.083 27.4316 105.129 27.4786C105.174 27.5255 105.229 27.5626 105.289 27.5875C105.349 27.6125 105.414 27.6249 105.478 27.624H107.571C107.636 27.6249 107.7 27.6125 107.761 27.5875C107.821 27.5626 107.875 27.5255 107.921 27.4786C107.967 27.4316 108.003 27.3758 108.028 27.3143C108.052 27.2528 108.064 27.1869 108.063 27.1205V16.6214C108.063 16.0239 108.523 10.8079 113.246 10.8079C114.217 10.8347 115.164 11.1267 115.988 11.6537C116.051 11.6943 116.122 11.7196 116.196 11.7277C116.269 11.7358 116.344 11.7266 116.414 11.7006C116.483 11.6747 116.546 11.6328 116.597 11.5781C116.649 11.5235 116.687 11.4575 116.71 11.3852L117.399 9.27735C117.432 9.17635 117.433 9.06698 117.401 8.96542C117.369 8.86387 117.306 8.77553 117.222 8.71346C116.132 8.01527 114.857 7.68204 113.574 7.7602Z" fill="#FFF0F1"/>
<path d="M132.85 26.7648L122.734 16.9772L131.918 9.02231C131.995 8.95532 132.05 8.86591 132.075 8.76614C132.1 8.66638 132.095 8.56106 132.06 8.46444C132.025 8.36781 131.962 8.28453 131.879 8.22583C131.796 8.16713 131.698 8.13583 131.597 8.13618H128.671C128.554 8.13749 128.44 8.18015 128.35 8.25701L121.133 14.6478L121.468 0.516902C121.47 0.450009 121.46 0.383248 121.436 0.320846C121.412 0.258444 121.376 0.201777 121.33 0.154413C121.284 0.105315 121.229 0.0662825 121.168 0.0397299C121.107 0.0131773 121.042 -0.000341447 120.976 6.55164e-06H118.771C118.641 0.0017452 118.517 0.0553483 118.425 0.149394C118.333 0.24344 118.281 0.370493 118.279 0.503483V27.1273C118.279 27.2609 118.331 27.3889 118.423 27.4833C118.516 27.5778 118.641 27.6308 118.771 27.6308H120.976C121.042 27.6311 121.107 27.6176 121.168 27.5911C121.229 27.5645 121.284 27.5255 121.33 27.4764C121.376 27.4273 121.411 27.3694 121.435 27.306C121.459 27.2426 121.47 27.175 121.468 27.1072L121.159 19.5215L129.275 27.4898C129.319 27.5355 129.373 27.5715 129.431 27.5957C129.49 27.6199 129.553 27.6318 129.616 27.6308H132.502C132.6 27.6307 132.696 27.6007 132.777 27.5445C132.859 27.4883 132.922 27.4086 132.958 27.3155C132.995 27.2225 133.004 27.1203 132.983 27.0222C132.963 26.9241 132.914 26.8344 132.844 26.7648H132.85Z" fill="#FFF0F1"/>
</g>
<defs>
<clipPath id="clip0_572_2573">
<rect width="133" height="28" fill="white"/>
</clipPath>
</defs>
</svg>
