<svg width="98" height="30" viewBox="0 0 98 30" fill="none" xmlns="http://www.w3.org/2000/svg">
<path fill-rule="evenodd" clip-rule="evenodd" d="M60.2544 4.81245C28.8014 3.81059 0.679111 -2.05115 0.0199928 0.75229C-0.788521 4.21485 22.9484 13.9346 33.6964 25.3593L40.6743 19.937L48.8473 24.6474L47.9069 14.3477L60.2544 4.81245Z" fill="#B3D4FF"/>
<path fill-rule="evenodd" clip-rule="evenodd" d="M97.4697 17.9981C93.1371 16.0735 73.7943 9.68442 62.8002 8.09375L97.4697 17.9981Z" fill="#B3D4FF"/>
<path d="M97.4697 17.9981C93.1371 16.0735 73.7943 9.68442 62.8002 8.09375" stroke="#42526E" stroke-linecap="round" stroke-linejoin="round"/>
<path fill-rule="evenodd" clip-rule="evenodd" d="M68.2114 21.3969C62.9385 19.7448 56.9977 17.3192 51.9445 15.9922L68.2114 21.3969Z" fill="#B3D4FF"/>
<path d="M68.2114 21.3969C62.9385 19.7448 56.9977 17.3192 51.9445 15.9922" stroke="#42526E" stroke-linecap="round" stroke-linejoin="round"/>
<path fill-rule="evenodd" clip-rule="evenodd" d="M48.7471 24.3261L47.6486 14.2636L6.4231 3.23438M59.3633 5.3787C50.5176 11.3911 41.9793 17.8439 33.7808 24.7128L59.3633 5.3787Z" fill="#B3D4FF"/>
<path d="M48.7471 24.3261L47.6486 14.2636L6.4231 3.23438M59.3633 5.3787C50.5176 11.3911 41.9793 17.8439 33.7808 24.7128" stroke="#42526E" stroke-linecap="round" stroke-linejoin="round"/>
<path fill-rule="evenodd" clip-rule="evenodd" d="M42.6689 28.9997C40.4537 27.6157 38.0967 26.4726 35.6384 25.5898L42.6689 28.9997Z" fill="#B3D4FF"/>
<path d="M42.6689 28.9997C40.4537 27.6157 38.0967 26.4726 35.6384 25.5898" stroke="#42526E" stroke-linecap="round" stroke-linejoin="round"/>
</svg>
