<svg width="23" height="24" viewBox="0 0 23 24" fill="none" xmlns="http://www.w3.org/2000/svg">
<path d="M4.41406 13.3125V12.0469H6.32031L6.03906 10.9688H4.41406V9.70312H5.70312L4.875 6.52344H6.5625L7.29688 9.70312H10.4375L11.3203 6.52344H13.0078L13.8906 9.70312H17.0234L17.7656 6.52344H19.4688L18.6328 9.70312H19.9375V10.9688H18.2969L18.0156 12.0469H19.9375V13.3125H17.6797L16.4531 18H14.8203L13.5156 13.3125H10.8203L9.50781 18H7.875L6.64844 13.3125H4.41406ZM7.84375 12.0469H9.78125L10.0859 10.9688H7.59375L7.84375 12.0469ZM14.5391 12.0469H16.4844L16.7344 10.9688H14.2422L14.5391 12.0469ZM11.1719 12.0469H13.1641L12.8594 10.9688H11.4766L11.1719 12.0469ZM8.72656 15.8594L9.42969 13.3125H8.13281L8.72656 15.8594ZM15.6016 15.8594L16.1875 13.3125H14.8906L15.6016 15.8594ZM11.8281 9.70312H12.5078L12.1719 8.48438L11.8281 9.70312Z" fill="#091E42"/>
</svg>
