<svg width="17" height="13" viewBox="0 0 17 13" fill="none" xmlns="http://www.w3.org/2000/svg">
<rect width="16" height="16" transform="translate(0.5)" fill="white" fill-opacity="0.01"/>
<path fill-rule="evenodd" clip-rule="evenodd" d="M9.01115 2.65513C9.17312 2.72225 9.32029 2.82062 9.44423 2.94463L13.5562 7.05596C13.6803 7.17992 13.7788 7.32713 13.846 7.48916C13.9132 7.6512 13.9477 7.82489 13.9477 8.0003C13.9477 8.17571 13.9132 8.34939 13.846 8.51143C13.7788 8.67347 13.6803 8.82067 13.5562 8.94463L9.44423 13.056C9.32029 13.18 9.17312 13.2783 9.01115 13.3455C8.84917 13.4126 8.67556 13.4471 8.50023 13.4471C8.3249 13.4471 8.15129 13.4126 7.98931 13.3455C7.82734 13.2783 7.68017 13.18 7.55623 13.056L3.44423 8.94463C3.32012 8.82067 3.22166 8.67347 3.15449 8.51143C3.08731 8.34939 3.05273 8.17571 3.05273 8.0003C3.05273 7.82489 3.08731 7.6512 3.15449 7.48916C3.22166 7.32713 3.32012 7.17992 3.44423 7.05596L7.55623 2.94463C7.68017 2.82062 7.82734 2.72225 7.98931 2.65513C8.15129 2.58801 8.3249 2.55347 8.50023 2.55347C8.67556 2.55347 8.84917 2.58801 9.01115 2.65513ZM8.02882 9.13803C8.15385 9.26305 8.32342 9.33329 8.50023 9.33329C8.67704 9.33329 8.84661 9.26305 8.97163 9.13803C9.09666 9.01301 9.1669 8.84344 9.1669 8.66663V5.33329C9.1669 5.15648 9.09666 4.98691 8.97163 4.86189C8.84661 4.73686 8.67704 4.66663 8.50023 4.66663C8.32342 4.66663 8.15385 4.73686 8.02882 4.86189C7.9038 4.98691 7.83356 5.15648 7.83356 5.33329V8.66663C7.83356 8.84344 7.9038 9.01301 8.02882 9.13803ZM8.02882 11.138C8.15385 11.2631 8.32342 11.3333 8.50023 11.3333C8.67704 11.3333 8.84661 11.2631 8.97163 11.138C9.09666 11.013 9.1669 10.8434 9.1669 10.6666C9.1669 10.4898 9.09666 10.3202 8.97163 10.1952C8.84661 10.0702 8.67704 9.99996 8.50023 9.99996C8.32342 9.99996 8.15385 10.0702 8.02882 10.1952C7.9038 10.3202 7.83356 10.4898 7.83356 10.6666C7.83356 10.8434 7.9038 11.013 8.02882 11.138Z" fill="#DE350B"/>
</svg>
