<svg width="16" height="16" viewBox="0 0 16 16" fill="none" xmlns="http://www.w3.org/2000/svg">
<g clip-path="url(#clip0_2146_26176)">
<path d="M8 6H10.6667C11.0333 6 11.3333 5.7 11.3333 5.33333C11.3333 4.96667 11.0333 4.66667 10.6667 4.66667H8C7.63333 4.66667 7.33333 4.96667 7.33333 5.33333C7.33333 5.7 7.63333 6 8 6ZM8 8.66667H10.6667C11.0333 8.66667 11.3333 8.36667 11.3333 8C11.3333 7.63333 11.0333 7.33333 10.6667 7.33333H8C7.63333 7.33333 7.33333 7.63333 7.33333 8C7.33333 8.36667 7.63333 8.66667 8 8.66667ZM8 11.3333H10.6667C11.0333 11.3333 11.3333 11.0333 11.3333 10.6667C11.3333 10.3 11.0333 10 10.6667 10H8C7.63333 10 7.33333 10.3 7.33333 10.6667C7.33333 11.0333 7.63333 11.3333 8 11.3333ZM4.66667 4.66667H6V6H4.66667V4.66667ZM4.66667 7.33333H6V8.66667H4.66667V7.33333ZM4.66667 10H6V11.3333H4.66667V10ZM13.3333 2H2.66667C2.3 2 2 2.3 2 2.66667V13.3333C2 13.7 2.3 14 2.66667 14H13.3333C13.7 14 14 13.7 14 13.3333V2.66667C14 2.3 13.7 2 13.3333 2ZM12.6667 12.6667H3.33333V3.33333H12.6667V12.6667Z" fill="#172B4D"/>
</g>
<defs>
<clipPath id="clip0_2146_26176">
<rect width="16" height="16" fill="white"/>
</clipPath>
</defs>
</svg>
