<svg width="54" height="54" viewBox="0 0 54 54" fill="none" xmlns="http://www.w3.org/2000/svg">
<path d="M27 4.501C15.8175 4.501 6.75 13.5685 6.75 24.751C6.75 34.1335 13.14 42.0085 21.8025 44.3035L27 49.501L32.1975 44.3035C40.86 42.0085 47.25 34.1335 47.25 24.751C47.25 13.5685 38.1825 4.501 27 4.501ZM27 9.001C30.735 9.001 33.75 12.016 33.75 15.751C33.75 19.486 30.735 22.501 27 22.501C23.265 22.501 20.25 19.486 20.25 15.751C20.25 12.016 23.265 9.001 27 9.001ZM27 41.176C21.375 41.176 16.4025 38.296 13.5 33.931C13.5675 29.4535 22.5 27.001 27 27.001C31.4775 27.001 40.4325 29.4535 40.5 33.931C37.5975 38.296 32.625 41.176 27 41.176Z" fill="#0065FF"/>
</svg>
