<svg width="20" height="21" viewBox="0 0 20 21" fill="none" xmlns="http://www.w3.org/2000/svg">
<g clip-path="url(#clip0_1299_17284)">
<path d="M7.49935 10.2917C6.92435 10.2917 6.45768 10.7584 6.45768 11.3334C6.45768 11.9084 6.92435 12.3751 7.49935 12.3751C8.07435 12.3751 8.54102 11.9084 8.54102 11.3334C8.54102 10.7584 8.07435 10.2917 7.49935 10.2917ZM12.4993 10.2917C11.9243 10.2917 11.4577 10.7584 11.4577 11.3334C11.4577 11.9084 11.9243 12.3751 12.4993 12.3751C13.0743 12.3751 13.541 11.9084 13.541 11.3334C13.541 10.7584 13.0743 10.2917 12.4993 10.2917ZM9.99935 2.16675C5.39935 2.16675 1.66602 5.90008 1.66602 10.5001C1.66602 15.1001 5.39935 18.8334 9.99935 18.8334C14.5993 18.8334 18.3327 15.1001 18.3327 10.5001C18.3327 5.90008 14.5993 2.16675 9.99935 2.16675ZM9.99935 17.1667C6.32435 17.1667 3.33268 14.1751 3.33268 10.5001C3.33268 10.2584 3.34935 10.0167 3.37435 9.78342C5.34102 8.90842 6.89935 7.30008 7.71602 5.30841C9.22435 7.44175 11.7077 8.83342 14.516 8.83342C15.166 8.83342 15.791 8.75841 16.391 8.61675C16.566 9.20841 16.666 9.84175 16.666 10.5001C16.666 14.1751 13.6743 17.1667 9.99935 17.1667Z" fill="#C1C7D0"/>
</g>
<defs>
<clipPath id="clip0_1299_17284">
<rect width="20" height="20" fill="white" transform="translate(0 0.5)"/>
</clipPath>
</defs>
</svg>
