<svg width="20" height="20" viewBox="0 0 20 20" fill="none" xmlns="http://www.w3.org/2000/svg">
<g clip-path="url(#clip0_2201_25822)">
<path d="M16.6667 1.66663H6.66669C5.75002 1.66663 5.00002 2.41663 5.00002 3.33329V13.3333C5.00002 14.25 5.75002 15 6.66669 15H16.6667C17.5834 15 18.3334 14.25 18.3334 13.3333V3.33329C18.3334 2.41663 17.5834 1.66663 16.6667 1.66663ZM9.58335 7.91663C9.58335 8.60829 9.02502 9.16663 8.33335 9.16663H7.50002V10.8333H6.25002V5.83329H8.33335C9.02502 5.83329 9.58335 6.39163 9.58335 7.08329V7.91663ZM13.75 9.58329C13.75 10.275 13.1917 10.8333 12.5 10.8333H10.4167V5.83329H12.5C13.1917 5.83329 13.75 6.39163 13.75 7.08329V9.58329ZM17.0834 7.08329H15.8334V7.91663H17.0834V9.16663H15.8334V10.8333H14.5834V5.83329H17.0834V7.08329ZM7.50002 7.91663H8.33335V7.08329H7.50002V7.91663ZM3.33335 4.99996H1.66669V16.6666C1.66669 17.5833 2.41669 18.3333 3.33335 18.3333H15V16.6666H3.33335V4.99996ZM11.6667 9.58329H12.5V7.08329H11.6667V9.58329Z" fill="#C1C7D0"/>
</g>
<defs>
<clipPath id="clip0_2201_25822">
<rect width="20" height="20" fill="white"/>
</clipPath>
</defs>
</svg>
