<svg xmlns="http://www.w3.org/2000/svg" width="19" height="19" viewBox="0 0 19 19">
<path d="M16.3358 10.7654C16.4684 10.7654 16.5956 10.7127 16.6894 10.619C16.7832 10.5252 16.8358 10.398 16.8358 10.2654L16.8358 8.73427C16.8358 8.45812 16.612 8.23427 16.3358 8.23427L10.7656 8.23427L10.7656 2.66401C10.7656 2.5314 10.7129 2.40422 10.6191 2.31045C10.5254 2.21669 10.3982 2.16401 10.2656 2.16401H8.73443C8.60182 2.16401 8.47465 2.21669 8.38088 2.31045C8.28711 2.40422 8.23443 2.5314 8.23443 2.66401L8.23443 8.23427L2.66417 8.23427C2.38803 8.23427 2.16417 8.45812 2.16417 8.73427L2.16417 10.2654C2.16417 10.398 2.21685 10.5252 2.31062 10.619C2.40439 10.7127 2.53156 10.7654 2.66417 10.7654L8.23443 10.7654L8.23443 16.3357C8.23443 16.4683 8.28711 16.5954 8.38088 16.6892C8.47465 16.783 8.60182 16.8357 8.73443 16.8357H10.2656C10.3982 16.8357 10.5254 16.783 10.6191 16.6892C10.7129 16.5954 10.7656 16.4683 10.7656 16.3357L10.7656 10.7654L16.3358 10.7654Z" stroke-linejoin="round"/>
</svg>