<svg width="24" height="24" viewBox="0 0 24 24" fill="none" xmlns="http://www.w3.org/2000/svg">
<g clip-path="url(#clip0_1044_1796)">
<path fill-rule="evenodd" clip-rule="evenodd" d="M4 12C4 7.584 7.584 4 12 4C16.416 4 20 7.584 20 12C20 16.416 16.416 20 12 20C7.584 20 4 16.416 4 12ZM5.6 12C5.6 15.536 8.464 18.4 12 18.4C15.536 18.4 18.4 15.536 18.4 12C18.4 8.464 15.536 5.6 12 5.6C8.464 5.6 5.6 8.464 5.6 12ZM16 12C16 14.2091 14.2091 16 12 16C9.79086 16 8 14.2091 8 12C8 9.79086 9.79086 8 12 8C14.2091 8 16 9.79086 16 12Z" fill="#42526E"/>
</g>
<defs>
<clipPath id="clip0_1044_1796">
<rect width="24" height="24" fill="white"/>
</clipPath>
</defs>
</svg>
