<svg width="25" height="24" viewBox="0 0 25 24" fill="none" xmlns="http://www.w3.org/2000/svg">
<g clip-path="url(#clip0_2143_30030)">
<path d="M20 3.5L18.5 2L17 3.5L15.5 2L14 3.5L12.5 2L11 3.5L9.5 2L8 3.5L6.5 2L5 3.5L3.5 2V22L5 20.5L6.5 22L8 20.5L9.5 22L11 20.5L12.5 22L14 20.5L15.5 22L17 20.5L18.5 22L20 20.5L21.5 22V2L20 3.5ZM19.5 19.09H5.5V4.91H19.5V19.09ZM6.5 15H18.5V17H6.5V15ZM6.5 11H18.5V13H6.5V11ZM6.5 7H18.5V9H6.5V7Z" fill="#2D3CA1"/>
</g>
<defs>
<clipPath id="clip0_2143_30030">
<rect width="24" height="24" fill="white" transform="translate(0.5)"/>
</clipPath>
</defs>
</svg>
