<svg width="31" height="30" viewBox="0 0 31 30" xmlns="http://www.w3.org/2000/svg">
<path fill-rule="evenodd" clip-rule="evenodd" d="M15.8753 3.75098C12.7102 3.75098 10.1444 6.31601 10.1444 9.48014C10.1444 12.6443 12.7102 15.2093 15.8753 15.2093C19.0404 15.2093 21.6062 12.6443 21.6062 9.48014C21.6062 6.31601 19.0404 3.75098 15.8753 3.75098ZM25.0448 20.6635L27.211 25.0062C27.3898 25.3608 27.3721 25.7827 27.1643 26.1212C26.9565 26.4597 26.5882 26.6664 26.1909 26.6676H5.5597C5.16245 26.6664 4.79414 26.4597 4.58633 26.1212C4.37851 25.7827 4.36084 25.3608 4.5396 25.0062L6.70588 20.6635C7.67752 18.7251 9.66049 17.501 11.8293 17.501H19.9213C22.0902 17.501 24.0731 18.7251 25.0448 20.6635Z"/>
</svg>
